# xmcd
#
# Track frame offsets:
#	150
#	14377
#	28250
#	40567
#	55612
#	68202
#	79855
#	89725
#	102857
#	116382
#	128275
#	140397
#	152997
#	165660
#	178030
#
# Disc length: 2555 seconds
# Revision: 5
# Processed by: cddbd v1.5.2PL0 Copyright (c) Steve Scherf et al.
# Submitted via: dBpowerAMP V12.0
#
DISCID=bb09f90f
DTITLE=Various Artist - Living the Blues: Blues Greats
DYEAR=1997
DGENRE=Blues
TTITLE0=Howlin' Wolf - Smoke Stack Lightning •
TTITLE1=Chuck Berry - Wee Wee Hours •
TTITLE2=Otis Rush - Double Trouble •
TTITLE3=Elmore James - It Hurts Me Too •
TTITLE4=Jimmy Reed - Bright Lights, Big City •
TTITLE5=Junior Wells - Little By Little •
TTITLE6=Willie Dixon - 29 Ways •
TTITLE7=Amos Milburn and His Alladdin Chickenshackers - One Bourbon, One Scotch, One Beer •
TTITLE8=T-Bone Walker - T-Bone Shuffle •
TTITLE9=Freddie King - I'm Tore Down •
TTITLE10=Little Milton - We're Gonna Make It •
TTITLE11=Arthur "Big Boy" Cruddup - So Glad You're Mine •
TTITLE12=Jimmy Rogers - Walking By Myself •
TTITLE13=The Ravens - Bye Bye Baby Blues
TTITLE14=Joe Liggins - Rag Hop •
EXTD=
EXTT0=
EXTT1=
EXTT2=
EXTT3=
EXTT4=
EXTT5=
EXTT6=
EXTT7=
EXTT8=
EXTT9=
EXTT10=
EXTT11=
EXTT12=
EXTT13=
EXTT14=
PLAYORDER=
